<?xml version="1.0" encoding="UTF-8"?>
<svg width="20px" height="20px" viewBox="0 0 20 20" version="1.1" xmlns="http://www.w3.org/2000/svg" xmlns:xlink="http://www.w3.org/1999/xlink">
    <!-- Generator: Sketch 42 (36781) - http://www.bohemiancoding.com/sketch -->
    <title>icon_gift_info</title>
    <desc>Created with Sketch.</desc>
    <defs></defs>
    <g id="asset-page" stroke="none" stroke-width="1" fill="none" fill-rule="evenodd" opacity="0.284816576">
        <g id="_asset_sheet" transform="translate(-1037.000000, -486.000000)" fill="#464C59">
            <path d="M1047,506 C1041.47715,506 1037,501.522847 1037,496 C1037,490.477153 1041.47715,486 1047,486 C1052.52285,486 1057,490.477153 1057,496 C1057,501.522847 1052.52285,506 1047,506 Z M1044.06833,496.153556 L1044.66835,495.411295 L1045.13518,494.869503 C1045.35622,494.627893 1045.61143,494.458452 1045.74182,494.504473 C1045.87222,494.550145 1045.94369,494.703548 1045.90115,494.846492 L1044.13527,500.694986 C1043.95154,501.302671 1044.26079,501.952891 1044.82594,502.147434 C1044.95633,502.192409 1045.08846,502.208795 1045.21746,502.200777 L1045.25337,502.202869 C1046.60402,502.202869 1047.52897,501.209235 1048.3312,500.005369 C1048.3312,499.861728 1048.2918,499.548297 1048.26286,499.333184 L1047.66285,500.075446 L1047.19601,500.617238 C1046.97497,500.859197 1046.70024,501.028289 1046.56985,500.982617 C1046.44887,500.940431 1046.37879,500.805854 1046.40285,500.672673 L1048.18058,494.796288 C1048.36432,494.188602 1048.05507,493.538033 1047.48992,493.343839 C1047.35813,493.298515 1047.08375,493.284221 1047.07748,493.284221 C1045.72753,493.283872 1044.80223,494.277855 1044,495.481372 C1044,495.625013 1044.0394,495.938443 1044.06833,496.153556 Z M1048.00731,492.432137 C1048.68263,492.432137 1049.23,491.940898 1049.23,491.216068 C1049.23,490.491239 1048.68263,490 1048.00731,490 C1047.33199,490 1046.78462,490.491239 1046.78462,491.216068 C1046.78462,491.940898 1047.33199,492.432137 1048.00731,492.432137 Z" id="icon_gift_info"></path>
        </g>
    </g>
</svg>