<?xml version="1.0" encoding="UTF-8" standalone="no"?>
<svg width="24px" height="24px" viewBox="0 0 24 24" version="1.1" xmlns="http://www.w3.org/2000/svg" xmlns:xlink="http://www.w3.org/1999/xlink">
    <!-- Generator: Sketch 41.2 (35397) - http://www.bohemiancoding.com/sketch -->
    <title>icons</title>
    <desc>Created with Sketch.</desc>
    <defs></defs>
    <g id="Donation-Form" stroke="none" stroke-width="1" fill="none" fill-rule="evenodd">
        <g id="10c-Gift-Amount-Exceeded-Error" transform="translate(-253.000000, -1051.000000)" fill="#FC3581">
            <g id="Group" transform="translate(253.000000, 1051.000000)">
                <g id="icons">
                    <path d="M8.43873525,19 L2.375,19 C1.71890625,19 1.1875,18.4685938 1.1875,17.8125 L1.1875,10.6875 L13.62245,10.6875 L8.43873525,19 Z M18.6370194,9.5 L19,9.5 L19,7.125 C19,6.46890625 18.4685938,5.9375 17.8125,5.9375 L13.32375,5.9375 C13.4825781,5.87664063 13.6310156,5.82023438 13.7601563,5.77125 C14.3360937,5.55304687 14.879375,5.34671875 15.3113281,5.14039063 C15.7046875,4.95335937 16.625,4.51398437 16.625,3.5625 C16.625,3.3309375 16.625,2.62585938 15.3128125,1.3121875 C13.9991406,0 13.2940625,0 13.0625,0 C12.445,0 11.8824219,0.313203125 10.1828125,2.16570313 C9.94234375,2.4284375 9.71078125,2.6896875 9.5,2.92867188 C9.28921875,2.6896875 9.05765625,2.4284375 8.8171875,2.16570313 C7.11757813,0.313203125 6.555,0 5.9375,0 C5.7059375,0 5.00085938,0 3.6871875,1.3121875 C2.375,2.62585938 2.375,3.3309375 2.375,3.5625 C2.375,4.51398437 3.2953125,4.95335937 3.68867187,5.14039063 C4.120625,5.34671875 4.66390625,5.55304687 5.23984375,5.77125 C5.36898438,5.82023438 5.51742188,5.87664063 5.67625,5.9375 L1.1875,5.9375 C0.53140625,5.9375 0,6.46890625 0,7.125 L0,9.5 L14.3629806,9.5 L15.3292139,7.95056796 C15.5715039,7.5543874 16.0188086,7.30859375 16.5,7.30859375 C16.9811914,7.30859375 17.4284961,7.5543874 17.6707861,7.95056796 L18.6370194,9.5 Z" id="Combined-Shape"></path>
                    <path d="M17.90625,13.8095238 L15.09375,13.8095238 L15.5625,19.047619 L17.4375,19.047619 L17.90625,13.8095238 Z M16.5,22.3809524 C17.146875,22.3809524 17.671875,21.847619 17.671875,21.1904762 C17.671875,20.5333333 17.146875,20 16.5,20 C15.853125,20 15.328125,20.5333333 15.328125,21.1904762 C15.328125,21.847619 15.853125,22.3809524 16.5,22.3809524 Z M24,22.3809524 C24,22.5452381 23.9589844,22.7083333 23.8757813,22.8547619 C23.7082031,23.1511905 23.3976563,23.3333333 23.0625,23.3333333 L9.9375,23.3333333 C9.60117188,23.3333333 9.29179688,23.1511905 9.12421875,22.8547619 C9.04101562,22.7071429 9,22.5428571 9,22.377381 C9,22.2130952 9.04335937,22.047619 9.12773438,21.9011905 L15.6902344,10.472619 C15.8578125,10.1809524 16.1671875,10 16.5,10 C16.8328125,10 17.1421875,10.1809524 17.3097656,10.472619 L23.8722656,21.9011905 C23.9578125,22.0488095 24,22.2154762 24,22.3809524 L24,22.3809524 Z" id="Fill-279"></path>
                </g>
            </g>
        </g>
    </g>
</svg>