<?xml version="1.0" encoding="UTF-8"?>
<svg width="18px" height="20px" viewBox="0 0 18 20" version="1.1" xmlns="http://www.w3.org/2000/svg" xmlns:xlink="http://www.w3.org/1999/xlink">
    <!-- Generator: Sketch 42 (36781) - http://www.bohemiancoding.com/sketch -->
    <title>icon_gift_locked</title>
    <desc>Created with Sketch.</desc>
    <defs></defs>
    <g id="asset-page" stroke="none" stroke-width="1" fill="none" fill-rule="evenodd" opacity="0.25">
        <g id="_asset_sheet" transform="translate(-631.000000, -497.000000)" fill="#464C59">
            <path d="M644.529412,505.823529 L635.117647,505.823529 L635.117647,502.378235 C635.117647,500.057647 637.224706,498.764706 639.823529,498.764706 C642.422353,498.764706 644.529412,500.057647 644.529412,502.378235 L644.529412,505.823529 L644.529412,505.823529 Z M632.764706,505.823529 C631.79,505.823529 631,506.613529 631,507.588235 L631,515.235294 C631,516.21 631.79,517 632.764706,517 L646.882353,517 C647.857059,517 648.647059,516.21 648.647059,515.235294 L648.647059,507.588235 C648.647059,506.613529 647.857059,505.823529 646.882353,505.823529 L646.294118,505.823529 L646.294118,502.294118 C646.294118,499.37 643.924118,497 641,497 L638.647059,497 C635.722941,497 633.352941,499.37 633.352941,502.294118 L633.352941,505.823529 L632.764706,505.823529 L632.764706,505.823529 Z" id="icon_gift_locked"></path>
        </g>
    </g>
</svg>